#Comment line ignore any data following # character 
#Hierarchical Translation and Rotation (.htr) file 
[Header]	
#Header keywords are followed by a single value 
FileType HTR		#Single word string
DataType HTRS		#Translation followed by rotation and scale data
FileVersion 1		#integer
NumSegments 64		#integer
NumFrames 3		#integer
DataFrameRate 30		#integer, data frame rate in this file
EulerRotationOrder ZYX
CalibrationUnits mm
RotationUnits Degrees
GlobalAxisofGravity Y
BoneLengthAxis Y
ScaleFactor 1.00
[SegmentNames&Hierarchy]
#CHILD	PARENT
Pinger_Root GLOBAL
Pelvis Pinger_Root
L_Hip Pelvis
R_Hip Pelvis
Rear_Leg01 Pelvis
Spine1 Pelvis
L_Leg01 L_Hip
L_Leg02 L_Leg01
L_Leg03 L_Leg02
L_Foot L_Leg03
L_Toe1_01 L_Foot
L_Toe2_01 L_Foot
L_Toe3_01 L_Foot
planeAlignerLeft L_Foot
L_Toe1_02 L_Toe1_01
L_Toe1_03 L_Toe1_02
L_Toe2_02 L_Toe2_01
L_Toe2_03 L_Toe2_02
L_Toe3_02 L_Toe3_01
L_Toe3_03 L_Toe3_02
planeLockWeightLeft planeAlignerLeft
R_Leg01 R_Hip
R_Leg02 R_Leg01
R_Leg03 R_Leg02
R_Foot R_Leg03
planeAlignerRight R_Foot
R_Toe1_01 R_Foot
R_Toe2_01 R_Foot
R_Toe3_01 R_Foot
planeLockWeightRight planeAlignerRight
R_Toe1_02 R_Toe1_01
R_Toe1_03 R_Toe1_02
R_Toe2_02 R_Toe2_01
R_Toe2_03 R_Toe2_02
R_Toe3_02 R_Toe3_01
R_Toe3_03 R_Toe3_02
Rear_Leg02 Rear_Leg01
Rear_Leg03 Rear_Leg02
Rear_Leg04 Rear_Leg03
Rear_Foot Rear_Leg04
planeAlignerCenter Rear_Foot
Rear_Toe1_01 Rear_Foot
Rear_Toe2_01 Rear_Foot
Rear_Toe3_01 Rear_Foot
planeLockWeightCenter planeAlignerCenter
Rear_Toe1_02 Rear_Toe1_01
Rear_Toe1_03 Rear_Toe1_02
Rear_Toe2_02 Rear_Toe2_01
Rear_Toe2_03 Rear_Toe2_02
Rear_Toe3_02 Rear_Toe3_01
Rear_Toe3_03 Rear_Toe3_02
Back_Bone Spine1
Head Spine1
Motor_Bone Back_Bone
Ping_Mechanism Back_Bone
BN_LookIK Head
bottomMouth Head
L_Mouth01 Head
L_mouthFront Head
mouthGun Head
R_Mouth01 Head
R_mouthFront Head
TopMouth Head
weapon_bone Head
[BasePosition]
#SegmentName Tx, Ty, Tz, Rx, Ry, Rz, BoneLength
Pinger_Root 0.000000 0.000000 0.000000 -90.000000 0.000000 0.000000 10.000000 
Pelvis 0.000000 0.000000 0.000000 0.000000 0.000000 0.000000 10.000000 
L_Hip 0.000000 0.000000 0.000000 0.000000 0.000000 0.000000 10.000000 
R_Hip 0.000000 0.000000 0.000000 0.000000 0.000000 0.000000 10.000000 
Rear_Leg01 0.000000 0.000000 0.000000 0.000000 0.000000 0.000000 10.000000 
Spine1 0.000000 0.000000 0.000000 0.000000 0.000000 0.000000 10.000000 
L_Leg01 0.000000 0.000000 0.000000 0.000000 0.000000 0.000000 10.000000 
L_Leg02 0.000000 0.000000 0.000000 0.000000 0.000000 0.000000 10.000000 
L_Leg03 0.000000 0.000000 0.000000 0.000000 0.000000 0.000000 10.000000 
L_Foot 0.000000 0.000000 0.000000 0.000000 0.000000 0.000000 10.000000 
L_Toe1_01 0.000000 0.000000 0.000000 0.000000 0.000000 0.000000 10.000000 
L_Toe2_01 0.000000 0.000000 0.000000 0.000000 0.000000 0.000000 10.000000 
L_Toe3_01 0.000000 0.000000 0.000000 0.000000 0.000000 0.000000 10.000000 
planeAlignerLeft 0.000000 0.000000 0.000000 0.000000 0.000000 0.000000 10.000000 
L_Toe1_02 0.000000 0.000000 0.000000 0.000000 0.000000 0.000000 10.000000 
L_Toe1_03 0.000000 0.000000 0.000000 0.000000 0.000000 0.000000 10.000000 
L_Toe2_02 0.000000 0.000000 0.000000 0.000000 0.000000 0.000000 10.000000 
L_Toe2_03 0.000000 0.000000 0.000000 0.000000 0.000000 0.000000 10.000000 
L_Toe3_02 0.000000 0.000000 0.000000 0.000000 0.000000 0.000000 10.000000 
L_Toe3_03 0.000000 0.000000 0.000000 0.000000 0.000000 0.000000 10.000000 
planeLockWeightLeft 0.000000 0.000000 0.000000 0.000000 0.000000 0.000000 10.000000 
R_Leg01 0.000000 0.000000 0.000000 0.000000 0.000000 0.000000 10.000000 
R_Leg02 0.000000 0.000000 0.000000 0.000000 0.000000 0.000000 10.000000 
R_Leg03 0.000000 0.000000 0.000000 0.000000 0.000000 0.000000 10.000000 
R_Foot 0.000000 0.000000 0.000000 0.000000 0.000000 0.000000 10.000000 
planeAlignerRight 0.000000 0.000000 0.000000 0.000000 0.000000 0.000000 10.000000 
R_Toe1_01 0.000000 0.000000 0.000000 0.000000 0.000000 0.000000 10.000000 
R_Toe2_01 0.000000 0.000000 0.000000 0.000000 0.000000 0.000000 10.000000 
R_Toe3_01 0.000000 0.000000 0.000000 0.000000 0.000000 0.000000 10.000000 
planeLockWeightRight 0.000000 0.000000 0.000000 0.000000 0.000000 0.000000 10.000000 
R_Toe1_02 0.000000 0.000000 0.000000 0.000000 0.000000 0.000000 10.000000 
R_Toe1_03 0.000000 0.000000 0.000000 0.000000 0.000000 0.000000 10.000000 
R_Toe2_02 0.000000 0.000000 0.000000 0.000000 0.000000 0.000000 10.000000 
R_Toe2_03 0.000000 0.000000 0.000000 0.000000 0.000000 0.000000 10.000000 
R_Toe3_02 0.000000 0.000000 0.000000 0.000000 0.000000 0.000000 10.000000 
R_Toe3_03 0.000000 0.000000 0.000000 0.000000 0.000000 0.000000 10.000000 
Rear_Leg02 0.000000 0.000000 0.000000 0.000000 0.000000 0.000000 10.000000 
Rear_Leg03 0.000000 0.000000 0.000000 0.000000 0.000000 0.000000 10.000000 
Rear_Leg04 0.000000 0.000000 0.000000 0.000000 0.000000 0.000000 10.000000 
Rear_Foot 0.000000 0.000000 0.000000 0.000000 0.000000 0.000000 10.000000 
planeAlignerCenter 0.000000 0.000000 0.000000 0.000000 0.000000 0.000000 10.000000 
Rear_Toe1_01 0.000000 0.000000 0.000000 0.000000 0.000000 0.000000 10.000000 
Rear_Toe2_01 0.000000 0.000000 0.000000 0.000000 0.000000 0.000000 10.000000 
Rear_Toe3_01 0.000000 0.000000 0.000000 0.000000 0.000000 0.000000 10.000000 
planeLockWeightCenter 0.000000 0.000000 0.000000 0.000000 0.000000 0.000000 10.000000 
Rear_Toe1_02 0.000000 0.000000 0.000000 0.000000 0.000000 0.000000 10.000000 
Rear_Toe1_03 0.000000 0.000000 0.000000 0.000000 0.000000 0.000000 10.000000 
Rear_Toe2_02 0.000000 0.000000 0.000000 0.000000 0.000000 0.000000 10.000000 
Rear_Toe2_03 0.000000 0.000000 0.000000 0.000000 0.000000 0.000000 10.000000 
Rear_Toe3_02 0.000000 0.000000 0.000000 0.000000 0.000000 0.000000 10.000000 
Rear_Toe3_03 0.000000 0.000000 0.000000 0.000000 0.000000 0.000000 10.000000 
Back_Bone 0.000000 0.000000 0.000000 0.000000 0.000000 0.000000 10.000000 
Head 0.000000 0.000000 0.000000 0.000000 0.000000 0.000000 10.000000 
Motor_Bone 0.000000 0.000000 0.000000 0.000000 0.000000 0.000000 10.000000 
Ping_Mechanism 0.000000 0.000000 0.000000 0.000000 0.000000 0.000000 10.000000 
BN_LookIK 0.000000 0.000000 0.000000 0.000000 0.000000 0.000000 10.000000 
bottomMouth 0.000000 0.000000 0.000000 0.000000 0.000000 0.000000 10.000000 
L_Mouth01 0.000000 0.000000 0.000000 0.000000 0.000000 0.000000 10.000000 
L_mouthFront 0.000000 0.000000 0.000000 0.000000 0.000000 0.000000 10.000000 
mouthGun 0.000000 0.000000 0.000000 0.000000 0.000000 0.000000 10.000000 
R_Mouth01 0.000000 0.000000 0.000000 0.000000 0.000000 0.000000 10.000000 
R_mouthFront 0.000000 0.000000 0.000000 0.000000 0.000000 0.000000 10.000000 
TopMouth 0.000000 0.000000 0.000000 0.000000 0.000000 0.000000 10.000000 
weapon_bone 0.000000 0.000000 0.000000 0.000000 0.000000 0.000000 10.000000 
#Beginning of Data. Separated by tabs
#Fr	Tx	Ty	Tz	Rx	Ry	Rz	SF
[Pinger_Root]
1 0.000000 0.000000 0.000000 -0.000075 -0.000000 -0.000020 0.000000
2 0.000000 0.000000 0.000000 -0.000075 -0.000000 -0.000020 0.000000
3 0.000000 0.000000 0.000000 -0.000075 -0.000000 -0.000020 0.000000
[Pelvis]
1 72.227875 916.536438 4432.233398 -100.363472 -85.972015 92.748032 4526.582520
2 66.864334 919.319275 4431.359863 -102.740837 -86.707054 95.126991 4526.208984
3 54.074345 926.872620 4427.942383 -119.429367 -88.517998 111.832161 4524.233398
[L_Hip]
1 5.766392 125.831482 872.656799 160.158691 -45.484905 122.312202 881.701050
2 5.766392 125.831482 872.656799 160.158691 -45.484894 122.312202 881.701050
3 5.766392 125.831482 872.656799 160.158691 -45.484894 122.312202 881.701050
[R_Hip]
1 5.765438 125.836372 -872.654907 38.087841 49.812687 125.703735 881.699829
2 5.765438 125.836372 -872.654907 38.087841 49.812687 125.703735 881.699829
3 5.765438 125.836372 -872.654907 38.087830 49.812672 125.703735 881.699829
[Rear_Leg01]
1 -192.298416 -925.602966 -0.001907 169.680527 1.958474 -159.661636 945.367432
2 -192.298416 -925.602966 -0.001907 169.840515 2.667193 -155.370407 945.367432
3 -192.298416 -925.602966 -0.001907 170.413269 4.307699 -144.920822 945.367432
[Spine1]
1 290.604584 5.007505 0.000477 7.265744 -0.619986 19.266817 290.647736
2 290.604584 5.007505 0.000477 7.428223 -0.562522 19.578129 290.647736
3 290.604584 5.007505 0.000477 7.838785 -0.412522 20.456892 290.647736
[L_Leg01]
1 761.932007 -0.002384 -0.069261 22.817181 -15.695028 -9.052058 761.932068
2 761.932007 -0.002384 -0.069261 23.197088 -15.430446 -9.389980 761.932068
3 761.932007 -0.002384 -0.069261 24.198318 -14.739238 -10.326944 761.932068
[L_Leg02]
1 1441.140503 -0.000954 -0.000715 2.603748 -0.185718 -129.018967 1441.140503
2 1441.140503 -0.000954 -0.000715 2.779412 -0.231133 -129.018341 1441.140503
3 1441.140503 -0.000954 -0.000715 3.174214 -0.374735 -128.920410 1441.140503
[L_Leg03]
1 1686.963989 -0.000715 -0.000954 -0.029945 0.014719 118.138969 1686.963989
2 1686.963989 -0.000715 -0.000954 -0.027454 0.010328 117.538406 1686.963989
3 1686.963989 -0.000715 -0.000954 -0.020769 0.008402 116.092659 1686.963989
[L_Foot]
1 3041.570068 -30.715107 11.297464 1.950223 13.083426 55.475243 3041.746094
2 3041.570068 -30.715107 11.297464 2.095482 12.954770 55.837437 3041.746094
3 3041.570068 -30.715107 11.297464 2.422973 12.598972 56.789986 3041.746094
[L_Toe1_01]
1 -188.216690 -224.732346 -21.137953 93.719086 -6.862507 -171.970444 293.899567
2 -188.216690 -224.732346 -21.137953 93.762558 -6.874189 -172.500366 293.899567
3 -188.216690 -224.732346 -21.137953 93.872406 -6.884881 -173.881561 293.899567
[L_Toe2_01]
1 200.746536 -219.926590 148.838394 -90.023987 -26.311703 -52.677628 332.896027
2 200.746536 -219.926590 148.838394 -90.240143 -26.467171 -52.068340 332.896027
3 200.746536 -219.926590 148.838394 -90.758186 -26.844971 -50.591740 332.896027
[L_Toe3_01]
1 188.832520 -219.859131 -191.078659 -99.788055 13.839008 -67.673027 347.140900
2 188.832520 -219.859131 -191.078659 -99.696785 14.000308 -67.004189 347.140900
3 188.832520 -219.859131 -191.078659 -99.454811 14.398840 -65.357750 347.140900
[planeAlignerLeft]
1 32.989502 -593.020996 101.087341 169.306686 -76.298271 89.968506 602.478943
2 33.451843 -584.520752 101.237946 169.306671 -76.298279 89.968544 594.165527
3 34.370422 -564.020691 101.541214 169.306656 -76.298256 89.968506 574.117859
[L_Toe1_02]
1 413.761139 0.000477 0.000000 0.001384 -26.012932 0.001384 413.761139
2 413.761139 0.000477 0.000000 0.001384 -26.003870 0.001384 413.761139
3 413.761139 0.000477 0.000000 0.001384 -25.994806 0.001384 413.761139
[L_Toe1_03]
1 464.317322 0.000358 -0.000089 0.003734 53.359097 0.003734 464.317322
2 464.317322 0.000358 -0.000089 0.003778 53.802334 0.003778 464.317322
3 464.317322 0.000358 -0.000089 0.003873 54.718388 0.003873 464.317322
[L_Toe2_02]
1 342.235809 -0.000477 0.000238 0.001188 -72.402016 0.001188 342.235809
2 342.235809 -0.000477 0.000238 0.001187 -72.684181 0.001187 342.235809
3 342.235809 -0.000477 0.000238 0.001186 -73.386871 0.001186 342.235809
[L_Toe2_03]
1 420.210846 -0.000715 0.000000 0.029090 85.375511 0.029090 420.210846
2 420.210846 -0.000715 0.000000 0.034954 86.151680 0.034954 420.210846
3 420.210846 -0.000715 0.000000 -0.034579 87.993767 -0.031081 420.210846
[L_Toe3_02]
1 329.270111 0.000954 0.000000 0.001178 -80.480331 0.001178 329.270111
2 329.270111 0.000954 0.000000 0.001177 -80.752716 0.001177 329.270111
3 329.270111 0.000954 0.000000 0.001177 -81.323372 0.001177 329.270111
[L_Toe3_03]
1 439.137451 -0.001907 0.000954 -179.995956 78.605698 -179.992447 439.137451
2 439.137451 -0.001907 0.000954 -179.996460 77.555061 -179.992950 439.137451
3 439.137451 -0.001907 0.000954 -179.997345 75.058151 -179.993820 439.137451
[planeLockWeightLeft]
1 999.998718 0.097961 0.076027 -0.011826 -0.004376 0.005620 999.998779
2 999.998718 0.097964 0.076026 -0.011826 -0.004376 0.005620 999.998779
3 999.998718 0.097966 0.076026 -0.011826 -0.004376 0.005620 999.998779
[R_Leg01]
1 761.455627 -0.001907 -0.000358 120.155914 -8.176376 35.633469 761.455688
2 761.455627 -0.001907 -0.000358 119.422623 -9.718104 35.158615 761.455688
3 761.455627 -0.001907 -0.000358 117.624413 -13.293692 34.180042 761.455688
[R_Leg02]
1 1441.140625 0.000000 -0.000238 -1.339028 -0.199425 -118.901085 1441.140625
2 1441.140625 0.000000 -0.000238 -1.031534 -0.142004 -121.244736 1441.140625
3 1441.140625 0.000000 -0.000238 -0.647810 -0.077818 -126.155617 1441.140625
[R_Leg03]
1 1686.963989 0.000954 0.001431 0.075761 -0.043586 131.407837 1686.963989
2 1686.963989 0.000954 0.001431 0.074159 -0.038250 130.123962 1686.963989
3 1686.963989 0.000954 0.001431 0.062025 -0.031552 126.585495 1686.963989
[R_Foot]
1 3041.560059 -30.531288 -11.204481 -0.529816 -24.684416 55.344288 3041.734131
2 3041.560059 -30.531288 -11.204481 -0.223091 -25.304094 56.577881 3041.734131
3 3041.560059 -30.531288 -11.204481 0.373306 -26.846983 59.364944 3041.734131
[planeAlignerRight]
1 -127.148438 -574.019226 -312.902222 -36.577137 -71.339012 -64.343925 666.012451
2 -126.007378 -565.671448 -313.123413 -36.577137 -71.339012 -64.343925 658.717163
3 -123.724670 -545.691345 -313.566132 -36.577126 -71.339012 -64.343956 641.412964
[R_Toe1_01]
1 -188.383347 -224.864899 21.052242 76.763535 -0.414595 -172.728699 294.101532
2 -188.383347 -224.864899 21.052242 76.777916 -0.452361 -173.352280 294.101532
3 -188.383347 -224.864899 21.052242 76.820839 -0.537453 -174.893433 294.101532
[R_Toe2_01]
1 200.637817 -220.002121 -148.787384 -91.743256 32.873833 -59.182163 332.857574
2 200.637817 -220.002121 -148.787384 -91.529877 33.068668 -58.684616 332.857574
3 200.637817 -220.002121 -148.787384 -90.971542 33.539570 -57.414204 332.857574
[R_Toe3_01]
1 188.606735 -220.092957 191.126343 -73.225998 -8.456855 -73.756157 347.192566
2 188.606735 -220.092957 191.126343 -73.227646 -8.574430 -73.222282 347.192566
3 188.606735 -220.092957 191.126343 -73.234970 -8.889663 -71.927910 347.192566
[planeLockWeightRight]
1 999.999329 0.000000 0.076017 -0.011823 -0.004379 -0.000027 999.999329
2 999.999329 0.000000 0.076017 -0.011823 -0.004379 -0.000027 999.999329
3 999.999329 0.000000 0.076017 -0.011823 -0.004379 -0.000027 999.999329
[R_Toe1_02]
1 413.762085 0.000477 -0.000119 0.001394 -24.659479 0.001394 413.762085
2 413.762085 0.000477 -0.000119 0.001395 -24.508961 0.001395 413.762085
3 413.762085 0.000477 -0.000119 0.001397 -24.358438 0.001397 413.762085
[R_Toe1_03]
1 464.317810 0.000000 0.001088 0.006625 69.593369 0.006625 464.317810
2 464.317810 0.000000 0.001088 0.006821 70.184639 0.006821 464.317810
3 464.317810 0.000000 0.001088 0.007271 71.421143 0.007271 464.317810
[R_Toe2_02]
1 342.234741 -0.000954 0.000238 0.001197 -67.221245 0.001197 342.234741
2 342.234741 -0.000954 0.000238 0.001196 -67.595787 0.001196 342.234741
3 342.234741 -0.000954 0.000238 0.001195 -68.525940 0.001195 342.234741
[R_Toe2_03]
1 420.210846 0.000715 -0.000268 0.008234 73.612061 0.008234 420.210846
2 420.210846 0.000715 -0.000268 0.008620 74.348900 0.008620 420.210846
3 420.210846 0.000715 -0.000268 0.009736 76.153534 0.009736 420.210846
[R_Toe3_02]
1 329.270355 -0.000477 -0.000954 0.001184 -74.518616 0.001184 329.270355
2 329.270355 -0.000477 -0.000954 0.001184 -74.979164 0.001184 329.270355
3 329.270355 -0.000477 -0.000954 0.001182 -76.048286 0.001182 329.270355
[R_Toe3_03]
1 439.137939 0.000238 0.001431 -0.011587 83.300278 -0.008085 439.137939
2 439.137939 0.000238 0.001431 -0.013637 84.457123 -0.010136 439.137939
3 439.137939 0.000238 0.001431 -0.025264 87.198792 -0.021766 439.137939
[Rear_Leg02]
1 1162.777710 -0.029802 0.005960 0.634754 -2.916514 -123.692612 1162.777710
2 1162.777710 -0.029802 0.005960 0.714668 -2.907539 -120.960701 1162.777710
3 1162.777710 -0.029802 0.005960 0.851007 -2.883960 -113.266350 1162.777710
[Rear_Leg03]
1 607.192505 -0.013351 -0.073195 0.006472 -0.002119 64.461884 607.192505
2 607.192505 -0.013351 -0.073195 0.010628 -0.004817 65.117928 607.192505
3 607.192505 -0.013351 -0.073195 0.010580 -0.004921 66.242218 607.192505
[Rear_Leg04]
1 995.874512 -0.020504 -0.011921 -0.040559 -0.015048 58.562256 995.874573
2 995.874512 -0.020504 -0.011921 -0.043193 -0.018878 59.847797 995.874573
3 995.874512 -0.020504 -0.011921 -0.043568 -0.017995 62.178391 995.874573
[Rear_Foot]
1 3096.176270 -0.067472 -0.041425 -143.807465 85.749458 48.945320 3096.176270
2 3096.176270 -0.067472 -0.041425 -142.739960 85.812447 48.942795 3096.176270
3 3096.176270 -0.067472 -0.041425 -140.127731 85.950485 49.069996 3096.176270
[planeAlignerCenter]
1 1.039009 -15.214539 -777.158997 12.240772 -0.001473 179.998184 777.308594
2 1.039639 -16.786194 -780.497131 12.240773 -0.001473 179.998184 780.678345
3 1.038437 -21.137999 -789.513733 12.240772 -0.001473 179.998184 789.797302
[Rear_Toe1_01]
1 0.653352 83.966492 -371.173737 0.288091 41.914127 90.413170 380.553192
2 0.653352 83.966492 -371.173737 0.295827 42.123901 90.411316 380.553192
3 0.653352 83.966492 -371.173737 0.300454 42.701561 90.416351 380.553192
[Rear_Toe2_01]
1 178.200760 -294.826019 -362.060547 -5.736414 36.323372 -62.486561 499.765686
2 178.200760 -294.826019 -362.060547 -5.717012 36.539066 -62.532993 499.765686
3 178.200760 -294.826019 -362.060547 -5.675947 37.120514 -62.663395 499.765686
[Rear_Toe3_01]
1 -153.359680 -308.780914 -362.060852 2.252107 35.783749 -115.748756 499.952881
2 -153.359680 -308.780914 -362.060852 2.239304 35.984116 -115.708527 499.952881
3 -153.359680 -308.780914 -362.060852 2.215474 36.518913 -115.602692 499.952881
[planeLockWeightCenter]
1 1000.000000 0.000305 0.076256 -0.011814 -0.004373 -0.000015 1000.000000
2 1000.000000 0.000303 0.076256 -0.011814 -0.004373 -0.000015 1000.000000
3 1000.000000 0.000301 0.076256 -0.011814 -0.004373 -0.000015 1000.000000
[Rear_Toe1_02]
1 379.707825 0.194073 0.000477 -0.000242 -31.676744 0.006934 379.707855
2 379.707825 0.194073 0.000477 -0.000234 -31.573971 0.006930 379.707855
3 379.707825 0.194073 0.000477 -0.000227 -31.471193 0.006926 379.707855
[Rear_Toe1_03]
1 500.129700 0.165701 0.000119 -0.000103 51.902481 0.007295 500.129761
2 500.129700 0.165701 0.000119 -0.000126 51.682568 0.007278 500.129761
3 500.129700 0.165701 0.000119 -0.000184 51.100788 0.007233 500.129761
[Rear_Toe2_02]
1 340.494507 0.000238 -0.000954 0.001178 -80.266678 0.001178 340.494507
2 340.494507 0.000238 -0.000954 0.001178 -80.066292 0.001178 340.494507
3 340.494507 0.000238 -0.000954 0.001179 -79.511940 0.001179 340.494507
[Rear_Toe2_03]
1 433.103577 0.000000 0.000238 0.072778 88.151680 0.072778 433.103546
2 433.103577 0.000000 0.000238 0.059684 87.746323 0.059684 433.103546
3 433.103577 0.000000 0.000238 0.039633 86.606102 0.039633 433.103546
[Rear_Toe3_02]
1 340.494141 -0.000358 -0.000477 0.001179 -78.882912 0.001179 340.494171
2 340.494141 -0.000358 -0.000477 0.001179 -78.665375 0.001179 340.494171
3 340.494141 -0.000358 -0.000477 0.001180 -78.059235 0.001180 340.494171
[Rear_Toe3_03]
1 433.103577 0.001431 -0.000238 -0.015872 85.335075 -0.012373 433.103546
2 433.103577 0.001431 -0.000238 -0.014733 84.925568 -0.011233 433.103546
3 433.103577 0.001431 -0.000238 -0.012352 83.784317 -0.008850 433.103546
[Back_Bone]
1 1312.175781 -701.934692 0.000954 1.476979 0.001718 -85.608841 1488.125488
2 1312.175781 -701.934692 0.000954 1.476979 0.001718 -85.608841 1488.125488
3 1312.175781 -701.934692 0.000954 1.476979 0.001718 -85.608841 1488.125488
[Head]
1 1406.159424 809.709290 0.001431 0.000625 -1.475623 7.768025 1622.625488
2 1406.159424 809.709290 0.001431 -0.403478 -1.119048 8.460959 1622.625488
3 1406.159424 809.709290 0.001431 -1.371758 -0.259462 10.097873 1622.625488
[Motor_Bone]
1 1158.364380 -417.834747 0.000477 -0.095385 0.076104 -105.915703 1231.419434
2 1158.364380 -417.834747 0.000477 -0.095438 0.076037 -105.996178 1231.419434
3 1158.364380 -417.834747 0.000477 -0.095492 0.075970 -106.076645 1231.419434
[Ping_Mechanism]
1 1233.748169 -441.769379 -0.318842 0.000103 -0.000053 82.120995 1310.455933
2 1230.336304 -440.179443 -0.785441 0.000103 -0.000053 82.120995 1306.708008
3 1221.578369 -436.146240 -2.063670 0.000103 -0.000053 82.120995 1297.105103
[BN_LookIK]
1 193.241119 1380.371704 -0.002861 0.000000 89.965736 -31.038179 1393.832153
2 193.241119 1380.371704 -0.002861 0.000000 89.965736 -31.038179 1393.832153
3 193.241119 1380.371704 -0.002861 0.000000 89.965736 -31.038179 1393.832153
[bottomMouth]
1 -435.092926 615.759399 -0.000954 -0.000022 0.000016 73.527184 753.966492
2 -435.092926 615.759399 -0.000954 -0.000022 0.000016 73.527184 753.966492
3 -435.092926 615.759399 -0.000954 -0.000022 0.000016 73.527184 753.966492
[L_Mouth01]
1 554.440979 7.658243 838.222046 150.204178 23.759130 109.605339 1005.027161
2 554.440979 7.658243 838.222046 150.204178 23.759130 109.605339 1005.027161
3 554.440979 7.658243 838.222046 150.204178 23.759130 109.605339 1005.027161
[L_mouthFront]
1 551.629089 934.514771 339.150421 0.000081 2.804060 79.119301 1136.941284
2 551.629089 934.514771 339.150421 0.000081 2.804060 79.119301 1136.941284
3 551.629089 934.514771 339.150421 0.000081 2.804060 79.119301 1136.941284
[mouthGun]
1 55.332661 1627.420898 0.000000 0.000023 0.000009 -11.038128 1628.361328
2 55.332661 1627.420898 0.000000 0.000023 0.000009 -11.038128 1628.361328
3 55.332661 1627.420898 0.000000 0.000023 0.000009 -11.038128 1628.361328
[R_Mouth01]
1 554.442383 7.659197 -838.223938 29.795891 -23.759109 109.605331 1005.029541
2 554.442383 7.659197 -838.223938 29.795891 -23.759109 109.605331 1005.029541
3 554.442383 7.659197 -838.223938 29.795891 -23.759109 109.605331 1005.029541
[R_mouthFront]
1 551.629089 934.514282 -339.151367 0.000029 -2.803930 79.119133 1136.941162
2 551.629089 934.514282 -339.151367 0.000029 -2.803930 79.119133 1136.941162
3 551.629089 934.514282 -339.151367 0.000029 -2.803930 79.119133 1136.941162
[TopMouth]
1 461.269867 -56.106091 -0.008583 -0.000059 -0.000268 92.025169 464.669525
2 461.269867 -56.106091 -0.008583 -0.000059 -0.000268 92.025169 464.669525
3 461.269867 -56.106091 -0.008583 -0.000059 -0.000268 92.025169 464.669525
[weapon_bone]
1 -987.239868 1448.372803 0.001431 0.000000 89.965736 -31.038221 1752.833740
2 -987.239868 1448.372803 0.001431 0.000000 89.965736 -31.038221 1752.833740
3 -987.239868 1448.372803 0.001431 0.000000 89.965736 -31.038221 1752.833740
